<svg width="107" height="207" viewBox="0 0 107 207" fill="none" xmlns="http://www.w3.org/2000/svg">
<path d="M82.2619 17.1428C81.6367 15.7982 81.0113 14.4531 80.413 13.1035C79.1869 10.3422 76.8969 8.38968 73.2069 6.95859C72.6847 6.7081 72.1144 6.57295 71.5353 6.56222C70.9562 6.55149 70.3817 6.66525 69.8506 6.89622C69.3903 7.15691 68.9922 7.51458 68.6836 7.94417C68.375 8.37378 68.1633 8.86501 68.0632 9.3844C67.6342 11.113 67.4179 12.8875 67.4181 14.6685C67.3534 18.9643 67.322 23.2608 67.2917 27.5566C67.2388 34.7625 67.1862 42.215 66.9627 49.5334C66.6459 59.9536 66.2343 70.5414 65.8368 80.7842C65.4242 91.4141 64.9958 102.407 64.6731 113.222C64.1294 131.433 63.7262 149.952 63.3363 167.862L63.0146 182.54C62.9163 187.007 62.9194 191.658 63.0261 196.362C62.9451 198.09 63.3007 199.811 64.0593 201.365C64.5341 202.154 66.2522 204.764 68.4472 205.231C68.7264 205.291 69.011 205.321 69.2966 205.322C71.5857 205.322 73.1623 203.252 73.7027 201.114C74.1505 199.243 74.3738 197.324 74.3681 195.4C74.4242 187.484 74.4621 179.568 74.4806 171.652C74.4969 166.788 74.5151 161.924 74.5364 157.059C74.5414 156.055 74.6076 155.061 74.6832 153.909C74.7043 153.59 74.7254 153.261 74.7464 152.921C76.9716 152.921 79.1739 152.932 81.3527 152.954C87.077 152.991 92.4819 153.028 97.991 152.862C104.357 152.67 106.688 150.286 106.899 143.746C106.911 142.699 106.859 141.651 106.741 140.611L106.667 139.782C106.542 138.29 106.407 136.8 106.271 135.309C106.019 132.564 105.761 129.723 105.592 126.932L105.41 123.893C104.57 109.76 103.694 95.1461 100.452 81.0682C96.8994 65.6522 92.7293 49.3631 87.3318 29.8077C85.9931 25.4539 84.2973 21.2177 82.2619 17.1428Z" fill="#FC787D"/>
<path d="M19.3737 39.9053C18.8897 35.6195 18.6737 31.2241 18.4644 26.9695C18.3686 24.9989 18.272 23.0281 18.1493 21.0592C18.0983 20.229 18.0495 19.3988 18.0024 18.5685C17.847 15.8509 17.6854 13.0422 17.3812 10.2834C17.2663 9.65254 16.9853 9.06335 16.5671 8.57725C16.149 8.09115 15.6087 7.72569 15.0022 7.51781C13.9467 7.3094 12.9401 8.42402 12.125 9.32486C11.6496 9.94563 11.3884 10.7037 11.3823 11.4856C11.2983 14.2671 11.2048 17.0484 11.109 19.8299C10.846 27.3929 10.5734 35.208 10.6347 42.903C10.6796 45.64 11.328 48.3334 12.5337 50.7911C13.7393 53.2486 15.4723 55.41 17.6093 57.1206C19.7647 58.7987 22.0812 60.2591 24.5241 61.4815C25.5325 62.0319 26.5731 62.5972 27.6252 63.2098C27.5236 66.1308 27.4 69.0753 27.2757 72.0333C26.9883 78.8779 26.6878 85.9543 26.6659 92.971C26.5751 118.114 26.5901 143.678 26.6052 168.399C26.6108 177.734 26.6152 187.069 26.6175 196.403C26.6175 196.719 26.6168 197.037 26.6109 197.353C26.6017 198.332 26.5919 199.342 26.6717 200.348C26.9524 203.87 28.9367 206.2 31.63 206.2C31.683 206.2 31.7346 206.2 31.7876 206.2C34.5935 206.106 36.433 203.684 36.4759 200.028C36.4986 198.019 36.4403 195.984 36.3848 194.017C36.3361 192.312 36.2854 190.551 36.2888 188.822C36.3352 166.676 36.3941 144.532 36.4652 122.386L36.5152 104.795C36.5236 101.931 36.5302 99.0668 36.5341 96.203C36.5467 88.5675 36.561 80.6744 36.6375 72.9122C36.6627 70.3963 36.8307 67.8275 36.9929 65.3426C37.0559 64.3729 37.1188 63.4032 37.1742 62.4326C45.7641 59.3368 50.8873 53.1124 53.7495 42.3384C56.4983 31.9889 56.6072 21.7198 56.3551 13.0391L56.3477 12.7256C56.3309 11.8088 56.3101 10.6655 55.6387 9.97809C54.4395 8.75035 53.034 7.43361 51.4911 7.34957C50.0281 7.26554 48.3598 9.03004 47.722 10.3342C47.3049 11.3654 47.1146 12.4744 47.1639 13.5856C47.1521 14.0134 47.142 14.4409 47.0983 14.8527C46.8772 16.9964 46.6851 19.1452 46.4935 21.2947C46.0422 26.3368 45.5762 31.5469 44.725 36.5939C44.1729 39.8595 42.7757 43.0956 41.4235 46.225C41.1572 46.8427 40.8913 47.4596 40.6316 48.0739C40.3724 48.7429 39.9783 49.3519 39.4736 49.8621C38.9691 50.3722 38.3648 50.773 37.6986 51.0397C37.6952 50.5607 37.6919 50.0906 37.6879 49.629C37.6728 47.9239 37.6579 46.3132 37.7125 44.7183C37.7646 43.2006 37.8252 41.683 37.8857 40.1653C38.2345 31.4687 38.5944 22.4756 37.2431 13.6176C37.1196 12.2242 36.7072 10.8721 36.0327 9.64655C35.6302 9.16994 35.1195 8.79713 34.5425 8.56002C33.9654 8.32291 33.3395 8.2284 32.7182 8.28429C31.4535 8.41118 30.6094 10.1766 30.454 10.5296C30.2418 11.114 30.1721 11.7404 30.2513 12.3571C30.263 12.5664 30.2752 12.7775 30.2685 12.9783C30.166 15.7727 30.0654 18.5674 29.9673 21.3628C29.7001 28.9065 29.4238 36.7072 29.0877 44.3744C29.0036 46.2232 28.7622 48.0716 28.5034 50.0212C28.4261 50.5977 28.3499 51.1784 28.276 51.7684C22.9516 49.6516 20.0342 45.7607 19.3737 39.9053Z" fill="#FC787D"/>
<path d="M72.0197 10.7414C71.3945 9.39687 70.7691 8.05176 70.1708 6.70218C68.9448 3.94083 66.6547 1.98831 62.9648 0.55722C62.4425 0.306737 61.8722 0.171581 61.2931 0.16085C60.714 0.150121 60.1395 0.263886 59.6084 0.494851C59.1481 0.755543 58.75 1.11321 58.4414 1.54281C58.1328 1.97241 57.9211 2.46365 57.821 2.98303C57.392 4.71162 57.1757 6.48612 57.1759 8.26714C57.1112 12.5629 57.0798 16.8595 57.0496 21.1553C56.9966 28.3612 56.944 35.8136 56.7205 43.1321C56.4037 53.5523 55.9921 64.14 55.5946 74.3828C55.182 85.0128 54.7536 96.006 54.4309 106.82C53.8872 125.032 53.484 143.551 53.0941 161.461L52.7724 176.139C52.6741 180.606 52.6772 185.256 52.7839 189.961C52.7029 191.688 53.0585 193.409 53.8171 194.964C54.2919 195.752 56.0101 198.362 58.205 198.83C58.4843 198.889 58.7688 198.919 59.0544 198.92C61.3435 198.92 62.9201 196.851 63.4605 194.713C63.9083 192.841 64.1317 190.923 64.1259 188.998C64.182 181.083 64.2199 173.167 64.2384 165.251C64.2547 160.387 64.2729 155.523 64.2942 150.658C64.2992 149.654 64.3654 148.66 64.4411 147.508C64.4621 147.188 64.4832 146.86 64.5043 146.519C66.7295 146.519 68.9317 146.53 71.1105 146.552C76.8348 146.589 82.2397 146.626 87.7488 146.461C94.1143 146.269 96.4454 143.884 96.6564 137.345C96.669 136.298 96.6169 135.25 96.4984 134.209L96.4244 133.381C96.3001 131.888 96.1648 130.398 96.0286 128.908C95.7765 126.162 95.5185 123.322 95.3496 120.53L95.1681 117.492C94.3278 103.359 93.4513 88.7447 90.2101 74.6668C86.6572 59.2508 82.4871 42.9617 77.0896 23.4063C75.7509 19.0525 74.0551 14.8163 72.0197 10.7414ZM86.137 135.353H64.9392C64.7401 121.814 65.1483 107.691 65.5432 94.0262C65.7172 88.0044 65.8972 81.7787 66.0258 75.6426C66.3182 61.549 66.6016 47.4556 66.8768 33.3615L67.1369 20.2419C77.1091 54.0612 86.6925 93.6884 86.1353 135.353H86.137Z" fill="#111827"/>
<path d="M9.13153 33.5039C8.6475 29.2182 8.4315 24.8227 8.22226 20.5681C8.12646 18.5975 8.02982 16.6267 7.90713 14.6578C7.85615 13.8276 7.8073 12.9974 7.76024 12.1672C7.60478 9.44952 7.44321 6.64082 7.13901 3.882C7.0241 3.25117 6.7431 2.66199 6.32494 2.17589C5.90678 1.68979 5.36655 1.32432 4.75998 1.11644C3.70452 0.908037 2.69794 2.02265 1.88281 2.92349C1.40737 3.54426 1.14624 4.30233 1.14013 5.08424C1.0561 7.86575 0.962655 10.647 0.866857 13.4285C0.603831 20.9915 0.331182 28.8067 0.392526 36.5016C0.43741 39.2387 1.08585 41.932 2.29149 44.3897C3.49713 46.8472 5.2301 49.0086 7.36715 50.7193C9.52254 52.3973 11.839 53.8578 14.2819 55.0801C15.2903 55.6305 16.3309 56.1958 17.383 56.8084C17.2814 59.7294 17.1578 62.674 17.0335 65.6319C16.7461 72.4765 16.4456 79.553 16.4237 86.5697C16.333 111.713 16.3479 137.276 16.363 161.997C16.3686 171.333 16.373 180.667 16.3753 190.002C16.3753 190.318 16.3746 190.635 16.3688 190.952C16.3595 191.93 16.3497 192.94 16.4295 193.947C16.7102 197.469 18.6946 199.798 21.3878 199.798C21.4408 199.798 21.4925 199.798 21.5454 199.798C24.3513 199.705 26.1909 197.283 26.2337 193.627C26.2564 191.618 26.1981 189.583 26.1426 187.616C26.0939 185.911 26.0432 184.15 26.0466 182.421C26.093 160.275 26.1519 138.13 26.223 115.985L26.273 98.3932C26.2814 95.5293 26.288 92.6655 26.2919 89.8016C26.3046 82.1662 26.3188 74.273 26.3953 66.5109C26.4205 63.9949 26.5885 61.4262 26.7507 58.9413C26.8137 57.9715 26.8766 57.0019 26.932 56.0313C35.5219 52.9355 40.6451 46.711 43.5073 35.9371C46.2561 25.5875 46.365 15.3184 46.1129 6.63771L46.1055 6.32422C46.0887 5.40742 46.0679 4.26411 45.3965 3.57672C44.1973 2.34899 42.7918 1.03224 41.2489 0.948205C39.7859 0.864172 38.1176 2.62868 37.4798 3.93288C37.0627 4.96406 36.8724 6.07303 36.9217 7.18426C36.9099 7.61199 36.8998 8.03956 36.8561 8.45137C36.6351 10.5951 36.4429 12.7438 36.2513 14.8934C35.8 19.9354 35.3341 25.1455 34.4828 30.1925C33.9307 33.4581 32.5335 36.6942 31.1814 39.8236C30.915 40.4413 30.6491 41.0583 30.3894 41.6725C30.1302 42.3415 29.7361 42.9505 29.2314 43.4607C28.7269 43.9709 28.1226 44.3716 27.4564 44.6383C27.453 44.1594 27.4497 43.6893 27.4457 43.2276C27.4306 41.5225 27.4157 39.9119 27.4704 38.3169C27.5225 36.7993 27.583 35.2816 27.6435 33.764C27.9923 25.0673 28.3522 16.0742 27.0009 7.21626C26.8774 5.82285 26.465 4.47073 25.7905 3.24518C25.388 2.76858 24.8773 2.39576 24.3003 2.15865C23.7232 1.92154 23.0973 1.82704 22.476 1.88292C21.2113 2.00981 20.3672 3.77525 20.2118 4.12819C19.9996 4.71258 19.9299 5.33908 20.0091 5.95576C20.0209 6.165 20.033 6.37614 20.0263 6.57698C19.9238 9.37137 19.8232 12.166 19.7251 14.9614C19.4579 22.5051 19.1816 30.3058 18.8455 37.973C18.7614 39.8218 18.52 41.6703 18.2612 43.6199C18.1839 44.1963 18.1077 44.7771 18.0338 45.367C12.7094 43.2502 9.79204 39.3594 9.13153 33.5039Z" fill="#111827"/>
</svg>
