<svg width="194" height="200" viewBox="0 0 194 200" fill="none" xmlns="http://www.w3.org/2000/svg">
<path d="M84.9126 123.833C63.4981 144.905 42.0736 165.965 20.6394 187.014C16.3577 191.202 11.7858 195.11 7.15452 198.912C6.38194 199.534 5.43961 199.909 4.45075 199.987C3.46189 200.065 2.47238 199.843 1.61163 199.35C0.180731 198.613 -0.153437 195.869 1.06381 194.201C2.23833 192.587 3.28678 190.86 4.60482 189.372C13.0149 179.881 21.195 170.162 29.993 161.042C48.0709 142.307 66.3965 123.81 84.7856 105.384C102.231 87.8978 119.916 70.6526 137.424 53.2233C140.234 50.4261 142.683 47.2663 145.237 44.216C145.377 43.9845 145.457 43.7216 145.469 43.4513C145.48 43.1809 145.424 42.9119 145.305 42.669C144.923 42.1858 144.072 41.5832 143.623 41.7158C135.337 44.1656 126.97 46.3974 118.842 49.3129C99.9458 56.0959 80.473 60.7075 60.9839 65.296C57.7814 66.0487 54.4639 66.877 51.2329 65.2445C50.6456 64.9476 49.6618 64.4163 49.6991 64.0832C49.7437 62.8075 50.1034 61.5627 50.7463 60.4599C51.5662 59.4204 52.6587 58.6288 53.9019 58.1733C58.2724 56.5298 62.6789 54.9642 67.1337 53.5717C98.9662 43.5762 130.829 33.6815 162.648 23.6433C174.65 19.8557 182.381 20.0847 181.931 38.5878C181.803 43.9202 181.641 49.2812 180.988 54.5654C177.961 79.0769 174.82 103.573 171.565 128.055C171.026 131.329 170.231 134.557 169.19 137.708C168.564 139.818 166.755 140.746 164.685 141.036C162.406 141.356 158.749 139.314 157.945 137.612C156.159 133.836 156.101 129.812 156.384 125.834C157.471 110.52 158.696 95.2166 159.929 79.915C160.734 69.9448 161.663 59.9899 162.449 50.0218C162.488 49.5288 161.792 48.8112 161.267 48.4978C161.013 48.3861 160.736 48.3376 160.459 48.3567C160.182 48.3758 159.914 48.4619 159.678 48.6074C156.682 51.2369 153.632 53.8149 150.834 56.6427C128.763 78.9462 106.722 101.279 84.7109 123.642L84.9126 123.833Z" fill="#FBB130"/>
<path d="M96.2261 102.132C74.8116 123.203 53.3871 144.264 31.9529 165.313C27.6712 169.501 23.0992 173.409 18.468 177.211C17.6954 177.833 16.7531 178.207 15.7642 178.286C14.7754 178.364 13.7859 178.142 12.9251 177.649C11.4942 176.911 11.16 174.168 12.3773 172.499C13.5518 170.886 14.6003 169.159 15.9183 167.671C24.3284 158.179 32.5085 148.461 41.3064 139.341C59.3844 120.606 77.7099 102.109 96.099 83.6829C113.545 66.1966 131.229 48.9514 148.738 31.5221C151.548 28.725 153.997 25.5651 156.551 22.5148C156.691 22.2833 156.77 22.0204 156.782 21.7501C156.794 21.4798 156.738 21.2107 156.619 20.9678C156.236 20.4846 155.386 19.8821 154.937 20.0146C146.65 22.4645 138.283 24.6962 130.156 27.6117C111.259 34.3948 91.7865 39.0063 72.2974 43.5948C69.0948 44.3475 65.7774 45.1758 62.5463 43.5433C61.9591 43.2464 60.9753 42.7151 61.0126 42.382C61.0572 41.1063 61.4169 39.8615 62.0598 38.7587C62.8797 37.7192 63.9722 36.9276 65.2153 36.4721C69.5858 34.8287 73.9924 33.2631 78.4472 31.8705C110.28 21.8751 142.143 11.9804 173.961 1.94217C185.964 -1.84544 193.695 -1.61643 193.244 16.8866C193.116 22.2191 192.954 27.58 192.301 32.8642C189.274 57.3757 186.133 81.8722 182.879 106.354C182.339 109.628 181.545 112.856 180.503 116.006C179.878 118.117 178.069 119.044 175.998 119.335C173.719 119.655 170.063 117.612 169.259 115.911C167.473 112.134 167.415 108.111 167.697 104.133C168.784 88.8193 170.009 73.5155 171.243 58.2138C172.047 48.2436 172.976 38.2887 173.763 28.3207C173.801 27.8276 173.105 27.11 172.581 26.7967C172.327 26.685 172.049 26.6365 171.772 26.6556C171.495 26.6746 171.227 26.7607 170.991 26.9062C167.996 29.5357 164.945 32.1137 162.147 34.9416C140.077 57.245 118.036 79.578 96.0244 101.941L96.2261 102.132Z" fill="#111827"/>
</svg>
